<svg xmlns="http://www.w3.org/2000/svg" viewBox="0 0 33 33" shape-rendering="crispEdges"><rect width="33" height="33" fill="#fff"/><path d="M2 2h7v1h-7zM11 2h1v1h-1zM15 2h3v1h-3zM19 2h4v1h-4zM24 2h7v1h-7zM2 3h1v1h-1zM8 3h1v1h-1zM11 3h1v1h-1zM13 3h1v1h-1zM15 3h5v1h-5zM24 3h1v1h-1zM30 3h1v1h-1zM2 4h1v1h-1zM4 4h3v1h-3zM8 4h1v1h-1zM10 4h2v1h-2zM13 4h3v1h-3zM17 4h1v1h-1zM20 4h1v1h-1zM24 4h1v1h-1zM26 4h3v1h-3zM30 4h1v1h-1zM2 5h1v1h-1zM4 5h3v1h-3zM8 5h1v1h-1zM10 5h1v1h-1zM12 5h1v1h-1zM16 5h2v1h-2zM19 5h1v1h-1zM22 5h1v1h-1zM24 5h1v1h-1zM26 5h3v1h-3zM30 5h1v1h-1zM2 6h1v1h-1zM4 6h3v1h-3zM8 6h1v1h-1zM10 6h4v1h-4zM17 6h3v1h-3zM21 6h2v1h-2zM24 6h1v1h-1zM26 6h3v1h-3zM30 6h1v1h-1zM2 7h1v1h-1zM8 7h1v1h-1zM10 7h3v1h-3zM19 7h2v1h-2zM24 7h1v1h-1zM30 7h1v1h-1zM2 8h7v1h-7zM10 8h1v1h-1zM12 8h1v1h-1zM14 8h1v1h-1zM16 8h1v1h-1zM18 8h1v1h-1zM20 8h1v1h-1zM22 8h1v1h-1zM24 8h7v1h-7zM10 9h1v1h-1zM12 9h1v1h-1zM14 9h1v1h-1zM16 9h1v1h-1zM18 9h1v1h-1zM20 9h1v1h-1zM22 9h1v1h-1zM2 10h1v1h-1zM4 10h5v1h-5zM12 10h2v1h-2zM18 10h2v1h-2zM22 10h1v1h-1zM24 10h5v1h-5zM5 11h3v1h-3zM9 11h2v1h-2zM13 11h5v1h-5zM21 11h2v1h-2zM24 11h3v1h-3zM30 11h1v1h-1zM4 12h5v1h-5zM10 12h2v1h-2zM13 12h1v1h-1zM15 12h4v1h-4zM26 12h1v1h-1zM2 13h2v1h-2zM5 13h1v1h-1zM10 13h6v1h-6zM17 13h1v1h-1zM20 13h2v1h-2zM25 13h3v1h-3zM29 13h1v1h-1zM2 14h1v1h-1zM7 14h3v1h-3zM12 14h1v1h-1zM16 14h2v1h-2zM19 14h1v1h-1zM23 14h1v1h-1zM25 14h1v1h-1zM27 14h2v1h-2zM2 15h2v1h-2zM5 15h1v1h-1zM7 15h1v1h-1zM9 15h3v1h-3zM13 15h1v1h-1zM17 15h2v1h-2zM21 15h6v1h-6zM30 15h1v1h-1zM2 16h4v1h-4zM8 16h3v1h-3zM12 16h3v1h-3zM24 16h5v1h-5zM2 17h1v1h-1zM5 17h3v1h-3zM11 17h2v1h-2zM16 17h1v1h-1zM18 17h1v1h-1zM21 17h1v1h-1zM23 17h4v1h-4zM29 17h1v1h-1zM2 18h3v1h-3zM6 18h1v1h-1zM8 18h4v1h-4zM13 18h1v1h-1zM18 18h1v1h-1zM25 18h1v1h-1zM27 18h2v1h-2zM2 19h1v1h-1zM5 19h2v1h-2zM10 19h3v1h-3zM15 19h3v1h-3zM21 19h6v1h-6zM28 19h1v1h-1zM30 19h1v1h-1zM2 20h1v1h-1zM4 20h2v1h-2zM8 20h2v1h-2zM11 20h3v1h-3zM15 20h6v1h-6zM23 20h1v1h-1zM25 20h1v1h-1zM28 20h1v1h-1zM2 21h1v1h-1zM6 21h2v1h-2zM9 21h4v1h-4zM14 21h2v1h-2zM17 21h1v1h-1zM21 21h1v1h-1zM23 21h3v1h-3zM29 21h1v1h-1zM2 22h1v1h-1zM5 22h2v1h-2zM8 22h1v1h-1zM12 22h1v1h-1zM16 22h2v1h-2zM19 22h2v1h-2zM22 22h5v1h-5zM28 22h3v1h-3zM10 23h4v1h-4zM17 23h2v1h-2zM22 23h1v1h-1zM26 23h5v1h-5zM2 24h7v1h-7zM11 24h2v1h-2zM14 24h1v1h-1zM20 24h3v1h-3zM24 24h1v1h-1zM26 24h3v1h-3zM2 25h1v1h-1zM8 25h1v1h-1zM10 25h2v1h-2zM16 25h1v1h-1zM18 25h1v1h-1zM20 25h3v1h-3zM26 25h1v1h-1zM29 25h1v1h-1zM2 26h1v1h-1zM4 26h3v1h-3zM8 26h1v1h-1zM10 26h2v1h-2zM13 26h2v1h-2zM18 26h1v1h-1zM20 26h1v1h-1zM22 26h5v1h-5zM28 26h1v1h-1zM30 26h1v1h-1zM2 27h1v1h-1zM4 27h3v1h-3zM8 27h1v1h-1zM10 27h3v1h-3zM15 27h3v1h-3zM19 27h4v1h-4zM27 27h2v1h-2zM2 28h1v1h-1zM4 28h3v1h-3zM8 28h1v1h-1zM10 28h4v1h-4zM15 28h1v1h-1zM17 28h3v1h-3zM21 28h9v1h-9zM2 29h1v1h-1zM8 29h1v1h-1zM12 29h1v1h-1zM14 29h4v1h-4zM19 29h2v1h-2zM22 29h1v1h-1zM25 29h3v1h-3zM29 29h1v1h-1zM2 30h7v1h-7zM10 30h4v1h-4zM15 30h3v1h-3zM27 30h2v1h-2z"/></svg>