<svg xmlns="http://www.w3.org/2000/svg" viewBox="0 0 33 33" shape-rendering="crispEdges"><rect width="33" height="33" fill="#fff"/><path d="M2 2h7v1h-7zM10 2h2v1h-2zM13 2h1v1h-1zM17 2h5v1h-5zM24 2h7v1h-7zM2 3h1v1h-1zM8 3h1v1h-1zM12 3h2v1h-2zM15 3h2v1h-2zM18 3h3v1h-3zM24 3h1v1h-1zM30 3h1v1h-1zM2 4h1v1h-1zM4 4h3v1h-3zM8 4h1v1h-1zM10 4h2v1h-2zM16 4h7v1h-7zM24 4h1v1h-1zM26 4h3v1h-3zM30 4h1v1h-1zM2 5h1v1h-1zM4 5h3v1h-3zM8 5h1v1h-1zM11 5h1v1h-1zM13 5h1v1h-1zM16 5h1v1h-1zM19 5h1v1h-1zM21 5h2v1h-2zM24 5h1v1h-1zM26 5h3v1h-3zM30 5h1v1h-1zM2 6h1v1h-1zM4 6h3v1h-3zM8 6h1v1h-1zM11 6h2v1h-2zM14 6h4v1h-4zM19 6h1v1h-1zM21 6h1v1h-1zM24 6h1v1h-1zM26 6h3v1h-3zM30 6h1v1h-1zM2 7h1v1h-1zM8 7h1v1h-1zM10 7h2v1h-2zM13 7h1v1h-1zM17 7h1v1h-1zM22 7h1v1h-1zM24 7h1v1h-1zM30 7h1v1h-1zM2 8h7v1h-7zM10 8h1v1h-1zM12 8h1v1h-1zM14 8h1v1h-1zM16 8h1v1h-1zM18 8h1v1h-1zM20 8h1v1h-1zM22 8h1v1h-1zM24 8h7v1h-7zM12 9h1v1h-1zM16 9h3v1h-3zM21 9h1v1h-1zM2 10h1v1h-1zM4 10h1v1h-1zM8 10h2v1h-2zM15 10h2v1h-2zM20 10h2v1h-2zM25 10h1v1h-1zM28 10h1v1h-1zM30 10h1v1h-1zM2 11h4v1h-4zM9 11h1v1h-1zM12 11h5v1h-5zM20 11h1v1h-1zM22 11h4v1h-4zM29 11h2v1h-2zM2 12h1v1h-1zM4 12h1v1h-1zM8 12h2v1h-2zM11 12h1v1h-1zM13 12h1v1h-1zM17 12h1v1h-1zM21 12h2v1h-2zM24 12h5v1h-5zM30 12h1v1h-1zM4 13h2v1h-2zM7 13h1v1h-1zM9 13h2v1h-2zM15 13h1v1h-1zM20 13h4v1h-4zM25 13h1v1h-1zM27 13h1v1h-1zM4 14h6v1h-6zM11 14h3v1h-3zM15 14h1v1h-1zM17 14h3v1h-3zM21 14h1v1h-1zM23 14h2v1h-2zM30 14h1v1h-1zM2 15h1v1h-1zM7 15h1v1h-1zM13 15h2v1h-2zM18 15h1v1h-1zM21 15h1v1h-1zM24 15h2v1h-2zM29 15h2v1h-2zM4 16h2v1h-2zM7 16h6v1h-6zM14 16h3v1h-3zM18 16h1v1h-1zM20 16h3v1h-3zM26 16h1v1h-1zM30 16h1v1h-1zM4 17h1v1h-1zM6 17h1v1h-1zM11 17h1v1h-1zM13 17h2v1h-2zM16 17h3v1h-3zM20 17h1v1h-1zM24 17h2v1h-2zM2 18h1v1h-1zM5 18h1v1h-1zM7 18h4v1h-4zM12 18h1v1h-1zM14 18h3v1h-3zM22 18h1v1h-1zM24 18h1v1h-1zM30 18h1v1h-1zM3 19h1v1h-1zM6 19h1v1h-1zM9 19h1v1h-1zM11 19h2v1h-2zM15 19h2v1h-2zM21 19h2v1h-2zM24 19h2v1h-2zM28 19h3v1h-3zM2 20h2v1h-2zM7 20h4v1h-4zM12 20h3v1h-3zM17 20h1v1h-1zM20 20h2v1h-2zM23 20h2v1h-2zM27 20h1v1h-1zM30 20h1v1h-1zM4 21h1v1h-1zM6 21h2v1h-2zM10 21h6v1h-6zM22 21h1v1h-1zM24 21h3v1h-3zM2 22h7v1h-7zM11 22h1v1h-1zM13 22h3v1h-3zM17 22h2v1h-2zM21 22h7v1h-7zM29 22h1v1h-1zM10 23h2v1h-2zM13 23h2v1h-2zM18 23h1v1h-1zM20 23h1v1h-1zM22 23h1v1h-1zM26 23h3v1h-3zM30 23h1v1h-1zM2 24h7v1h-7zM10 24h1v1h-1zM13 24h1v1h-1zM15 24h2v1h-2zM18 24h1v1h-1zM20 24h3v1h-3zM24 24h1v1h-1zM26 24h1v1h-1zM30 24h1v1h-1zM2 25h1v1h-1zM8 25h1v1h-1zM12 25h1v1h-1zM14 25h1v1h-1zM16 25h3v1h-3zM20 25h3v1h-3zM26 25h1v1h-1zM2 26h1v1h-1zM4 26h3v1h-3zM8 26h1v1h-1zM13 26h1v1h-1zM15 26h2v1h-2zM19 26h9v1h-9zM2 27h1v1h-1zM4 27h3v1h-3zM8 27h1v1h-1zM12 27h1v1h-1zM14 27h3v1h-3zM19 27h1v1h-1zM21 27h3v1h-3zM26 27h4v1h-4zM2 28h1v1h-1zM4 28h3v1h-3zM8 28h1v1h-1zM10 28h2v1h-2zM14 28h1v1h-1zM16 28h2v1h-2zM23 28h1v1h-1zM26 28h1v1h-1zM29 28h2v1h-2zM2 29h1v1h-1zM8 29h1v1h-1zM11 29h3v1h-3zM15 29h2v1h-2zM19 29h1v1h-1zM22 29h2v1h-2zM25 29h1v1h-1zM27 29h1v1h-1zM2 30h7v1h-7zM10 30h1v1h-1zM17 30h3v1h-3zM21 30h2v1h-2zM24 30h2v1h-2zM30 30h1v1h-1z"/></svg>