<svg xmlns="http://www.w3.org/2000/svg" viewBox="0 0 33 33" shape-rendering="crispEdges"><rect width="33" height="33" fill="#fff"/><path d="M2 2h7v1h-7zM14 2h2v1h-2zM18 2h1v1h-1zM20 2h1v1h-1zM24 2h7v1h-7zM2 3h1v1h-1zM8 3h1v1h-1zM10 3h1v1h-1zM13 3h2v1h-2zM16 3h7v1h-7zM24 3h1v1h-1zM30 3h1v1h-1zM2 4h1v1h-1zM4 4h3v1h-3zM8 4h1v1h-1zM11 4h1v1h-1zM13 4h4v1h-4zM18 4h1v1h-1zM21 4h1v1h-1zM24 4h1v1h-1zM26 4h3v1h-3zM30 4h1v1h-1zM2 5h1v1h-1zM4 5h3v1h-3zM8 5h1v1h-1zM11 5h7v1h-7zM19 5h2v1h-2zM24 5h1v1h-1zM26 5h3v1h-3zM30 5h1v1h-1zM2 6h1v1h-1zM4 6h3v1h-3zM8 6h1v1h-1zM10 6h1v1h-1zM12 6h2v1h-2zM16 6h1v1h-1zM19 6h2v1h-2zM24 6h1v1h-1zM26 6h3v1h-3zM30 6h1v1h-1zM2 7h1v1h-1zM8 7h1v1h-1zM11 7h5v1h-5zM19 7h4v1h-4zM24 7h1v1h-1zM30 7h1v1h-1zM2 8h7v1h-7zM10 8h1v1h-1zM12 8h1v1h-1zM14 8h1v1h-1zM16 8h1v1h-1zM18 8h1v1h-1zM20 8h1v1h-1zM22 8h1v1h-1zM24 8h7v1h-7zM11 9h6v1h-6zM18 9h4v1h-4zM2 10h1v1h-1zM4 10h1v1h-1zM6 10h1v1h-1zM8 10h1v1h-1zM11 10h1v1h-1zM13 10h2v1h-2zM16 10h2v1h-2zM26 10h1v1h-1zM29 10h1v1h-1zM2 11h3v1h-3zM6 11h2v1h-2zM10 11h2v1h-2zM16 11h2v1h-2zM19 11h4v1h-4zM24 11h1v1h-1zM27 11h1v1h-1zM30 11h1v1h-1zM2 12h1v1h-1zM7 12h2v1h-2zM10 12h2v1h-2zM15 12h1v1h-1zM20 12h1v1h-1zM22 12h3v1h-3zM26 12h1v1h-1zM28 12h3v1h-3zM4 13h4v1h-4zM9 13h1v1h-1zM14 13h1v1h-1zM17 13h1v1h-1zM19 13h2v1h-2zM29 13h1v1h-1zM5 14h2v1h-2zM8 14h3v1h-3zM13 14h2v1h-2zM18 14h2v1h-2zM22 14h1v1h-1zM24 14h2v1h-2zM27 14h1v1h-1zM29 14h2v1h-2zM3 15h2v1h-2zM6 15h1v1h-1zM10 15h3v1h-3zM14 15h2v1h-2zM17 15h2v1h-2zM22 15h3v1h-3zM27 15h1v1h-1zM30 15h1v1h-1zM4 16h1v1h-1zM7 16h2v1h-2zM10 16h2v1h-2zM14 16h1v1h-1zM16 16h3v1h-3zM22 16h2v1h-2zM25 16h3v1h-3zM29 16h2v1h-2zM2 17h1v1h-1zM4 17h1v1h-1zM6 17h1v1h-1zM9 17h2v1h-2zM12 17h1v1h-1zM15 17h2v1h-2zM18 17h7v1h-7zM27 17h1v1h-1zM29 17h1v1h-1zM8 18h2v1h-2zM11 18h1v1h-1zM13 18h2v1h-2zM16 18h2v1h-2zM19 18h2v1h-2zM23 18h3v1h-3zM27 18h1v1h-1zM29 18h2v1h-2zM4 19h1v1h-1zM9 19h1v1h-1zM12 19h3v1h-3zM16 19h2v1h-2zM20 19h1v1h-1zM22 19h3v1h-3zM27 19h2v1h-2zM30 19h1v1h-1zM2 20h1v1h-1zM5 20h5v1h-5zM11 20h2v1h-2zM14 20h2v1h-2zM20 20h1v1h-1zM22 20h1v1h-1zM24 20h2v1h-2zM29 20h2v1h-2zM3 21h5v1h-5zM9 21h1v1h-1zM11 21h1v1h-1zM13 21h2v1h-2zM17 21h1v1h-1zM19 21h3v1h-3zM23 21h2v1h-2zM26 21h2v1h-2zM29 21h1v1h-1zM2 22h1v1h-1zM4 22h3v1h-3zM8 22h2v1h-2zM11 22h2v1h-2zM14 22h1v1h-1zM18 22h1v1h-1zM21 22h6v1h-6zM10 23h3v1h-3zM14 23h2v1h-2zM17 23h3v1h-3zM21 23h2v1h-2zM26 23h1v1h-1zM28 23h3v1h-3zM2 24h7v1h-7zM12 24h1v1h-1zM16 24h3v1h-3zM22 24h1v1h-1zM24 24h1v1h-1zM26 24h2v1h-2zM29 24h2v1h-2zM2 25h1v1h-1zM8 25h1v1h-1zM11 25h3v1h-3zM15 25h2v1h-2zM18 25h3v1h-3zM22 25h1v1h-1zM26 25h2v1h-2zM29 25h1v1h-1zM2 26h1v1h-1zM4 26h3v1h-3zM8 26h1v1h-1zM10 26h2v1h-2zM13 26h1v1h-1zM16 26h2v1h-2zM20 26h1v1h-1zM22 26h5v1h-5zM29 26h1v1h-1zM2 27h1v1h-1zM4 27h3v1h-3zM8 27h1v1h-1zM11 27h1v1h-1zM13 27h5v1h-5zM22 27h1v1h-1zM25 27h2v1h-2zM28 27h1v1h-1zM2 28h1v1h-1zM4 28h3v1h-3zM8 28h1v1h-1zM10 28h2v1h-2zM13 28h1v1h-1zM19 28h1v1h-1zM21 28h1v1h-1zM25 28h3v1h-3zM30 28h1v1h-1zM2 29h1v1h-1zM8 29h1v1h-1zM12 29h1v1h-1zM14 29h1v1h-1zM16 29h2v1h-2zM21 29h2v1h-2zM29 29h1v1h-1zM2 30h7v1h-7zM10 30h1v1h-1zM12 30h1v1h-1zM14 30h3v1h-3zM18 30h1v1h-1zM22 30h3v1h-3zM27 30h1v1h-1zM29 30h2v1h-2z"/></svg>