<svg xmlns="http://www.w3.org/2000/svg" viewBox="0 0 33 33" shape-rendering="crispEdges"><rect width="33" height="33" fill="#fff"/><path d="M2 2h7v1h-7zM10 2h1v1h-1zM12 2h1v1h-1zM14 2h1v1h-1zM19 2h3v1h-3zM24 2h7v1h-7zM2 3h1v1h-1zM8 3h1v1h-1zM14 3h1v1h-1zM18 3h1v1h-1zM21 3h2v1h-2zM24 3h1v1h-1zM30 3h1v1h-1zM2 4h1v1h-1zM4 4h3v1h-3zM8 4h1v1h-1zM15 4h1v1h-1zM17 4h3v1h-3zM21 4h1v1h-1zM24 4h1v1h-1zM26 4h3v1h-3zM30 4h1v1h-1zM2 5h1v1h-1zM4 5h3v1h-3zM8 5h1v1h-1zM10 5h1v1h-1zM12 5h1v1h-1zM14 5h1v1h-1zM16 5h3v1h-3zM21 5h2v1h-2zM24 5h1v1h-1zM26 5h3v1h-3zM30 5h1v1h-1zM2 6h1v1h-1zM4 6h3v1h-3zM8 6h1v1h-1zM10 6h3v1h-3zM14 6h3v1h-3zM18 6h1v1h-1zM21 6h1v1h-1zM24 6h1v1h-1zM26 6h3v1h-3zM30 6h1v1h-1zM2 7h1v1h-1zM8 7h1v1h-1zM10 7h1v1h-1zM12 7h1v1h-1zM15 7h3v1h-3zM19 7h1v1h-1zM21 7h1v1h-1zM24 7h1v1h-1zM30 7h1v1h-1zM2 8h7v1h-7zM10 8h1v1h-1zM12 8h1v1h-1zM14 8h1v1h-1zM16 8h1v1h-1zM18 8h1v1h-1zM20 8h1v1h-1zM22 8h1v1h-1zM24 8h7v1h-7zM10 9h1v1h-1zM12 9h2v1h-2zM16 9h1v1h-1zM19 9h1v1h-1zM2 10h1v1h-1zM6 10h1v1h-1zM8 10h3v1h-3zM14 10h8v1h-8zM23 10h5v1h-5zM30 10h1v1h-1zM2 11h1v1h-1zM4 11h2v1h-2zM7 11h1v1h-1zM10 11h3v1h-3zM14 11h1v1h-1zM19 11h2v1h-2zM23 11h8v1h-8zM2 12h3v1h-3zM7 12h6v1h-6zM15 12h3v1h-3zM19 12h2v1h-2zM24 12h2v1h-2zM30 12h1v1h-1zM2 13h3v1h-3zM11 13h2v1h-2zM14 13h2v1h-2zM17 13h6v1h-6zM24 13h1v1h-1zM27 13h1v1h-1zM29 13h2v1h-2zM2 14h1v1h-1zM4 14h3v1h-3zM8 14h1v1h-1zM11 14h1v1h-1zM14 14h2v1h-2zM22 14h1v1h-1zM25 14h1v1h-1zM29 14h1v1h-1zM6 15h2v1h-2zM11 15h6v1h-6zM18 15h1v1h-1zM24 15h7v1h-7zM3 16h6v1h-6zM12 16h2v1h-2zM18 16h3v1h-3zM22 16h1v1h-1zM27 16h2v1h-2zM30 16h1v1h-1zM3 17h1v1h-1zM5 17h1v1h-1zM9 17h3v1h-3zM13 17h2v1h-2zM16 17h1v1h-1zM19 17h2v1h-2zM22 17h2v1h-2zM29 17h2v1h-2zM2 18h1v1h-1zM4 18h1v1h-1zM6 18h5v1h-5zM12 18h1v1h-1zM15 18h4v1h-4zM21 18h3v1h-3zM25 18h1v1h-1zM29 18h1v1h-1zM2 19h6v1h-6zM9 19h1v1h-1zM14 19h1v1h-1zM19 19h2v1h-2zM24 19h4v1h-4zM29 19h2v1h-2zM4 20h1v1h-1zM6 20h12v1h-12zM19 20h2v1h-2zM23 20h2v1h-2zM26 20h1v1h-1zM28 20h1v1h-1zM30 20h1v1h-1zM5 21h1v1h-1zM7 21h1v1h-1zM9 21h1v1h-1zM11 21h1v1h-1zM14 21h2v1h-2zM17 21h3v1h-3zM22 21h2v1h-2zM26 21h1v1h-1zM29 21h2v1h-2zM2 22h2v1h-2zM5 22h1v1h-1zM7 22h6v1h-6zM15 22h1v1h-1zM19 22h2v1h-2zM22 22h6v1h-6zM30 22h1v1h-1zM10 23h1v1h-1zM12 23h2v1h-2zM15 23h2v1h-2zM18 23h1v1h-1zM21 23h2v1h-2zM26 23h1v1h-1zM30 23h1v1h-1zM2 24h7v1h-7zM10 24h2v1h-2zM13 24h1v1h-1zM18 24h3v1h-3zM22 24h1v1h-1zM24 24h1v1h-1zM26 24h3v1h-3zM30 24h1v1h-1zM2 25h1v1h-1zM8 25h1v1h-1zM11 25h2v1h-2zM14 25h1v1h-1zM16 25h1v1h-1zM19 25h1v1h-1zM21 25h2v1h-2zM26 25h1v1h-1zM29 25h2v1h-2zM2 26h1v1h-1zM4 26h3v1h-3zM8 26h1v1h-1zM10 26h1v1h-1zM12 26h1v1h-1zM14 26h5v1h-5zM20 26h8v1h-8zM29 26h2v1h-2zM2 27h1v1h-1zM4 27h3v1h-3zM8 27h1v1h-1zM11 27h3v1h-3zM15 27h1v1h-1zM19 27h2v1h-2zM23 27h1v1h-1zM29 27h1v1h-1zM2 28h1v1h-1zM4 28h3v1h-3zM8 28h1v1h-1zM11 28h4v1h-4zM16 28h2v1h-2zM20 28h4v1h-4zM27 28h4v1h-4zM2 29h1v1h-1zM8 29h1v1h-1zM13 29h1v1h-1zM16 29h3v1h-3zM22 29h1v1h-1zM24 29h1v1h-1zM27 29h1v1h-1zM29 29h2v1h-2zM2 30h7v1h-7zM10 30h2v1h-2zM16 30h1v1h-1zM21 30h3v1h-3zM29 30h1v1h-1z"/></svg>