<svg xmlns="http://www.w3.org/2000/svg" viewBox="0 0 33 33" shape-rendering="crispEdges"><rect width="33" height="33" fill="#fff"/><path d="M2 2h7v1h-7zM13 2h3v1h-3zM18 2h4v1h-4zM24 2h7v1h-7zM2 3h1v1h-1zM8 3h1v1h-1zM12 3h2v1h-2zM15 3h3v1h-3zM19 3h2v1h-2zM24 3h1v1h-1zM30 3h1v1h-1zM2 4h1v1h-1zM4 4h3v1h-3zM8 4h1v1h-1zM12 4h2v1h-2zM15 4h1v1h-1zM18 4h5v1h-5zM24 4h1v1h-1zM26 4h3v1h-3zM30 4h1v1h-1zM2 5h1v1h-1zM4 5h3v1h-3zM8 5h1v1h-1zM12 5h2v1h-2zM15 5h3v1h-3zM20 5h2v1h-2zM24 5h1v1h-1zM26 5h3v1h-3zM30 5h1v1h-1zM2 6h1v1h-1zM4 6h3v1h-3zM8 6h1v1h-1zM12 6h5v1h-5zM18 6h4v1h-4zM24 6h1v1h-1zM26 6h3v1h-3zM30 6h1v1h-1zM2 7h1v1h-1zM8 7h1v1h-1zM10 7h1v1h-1zM12 7h1v1h-1zM15 7h2v1h-2zM19 7h1v1h-1zM21 7h2v1h-2zM24 7h1v1h-1zM30 7h1v1h-1zM2 8h7v1h-7zM10 8h1v1h-1zM12 8h1v1h-1zM14 8h1v1h-1zM16 8h1v1h-1zM18 8h1v1h-1zM20 8h1v1h-1zM22 8h1v1h-1zM24 8h7v1h-7zM11 9h1v1h-1zM13 9h2v1h-2zM16 9h1v1h-1zM19 9h1v1h-1zM22 9h1v1h-1zM2 10h1v1h-1zM5 10h1v1h-1zM7 10h2v1h-2zM10 10h1v1h-1zM12 10h1v1h-1zM14 10h1v1h-1zM17 10h1v1h-1zM21 10h1v1h-1zM23 10h1v1h-1zM25 10h1v1h-1zM2 11h2v1h-2zM5 11h1v1h-1zM7 11h1v1h-1zM12 11h1v1h-1zM14 11h1v1h-1zM16 11h2v1h-2zM19 11h4v1h-4zM24 11h1v1h-1zM27 11h1v1h-1zM30 11h1v1h-1zM3 12h1v1h-1zM5 12h5v1h-5zM11 12h1v1h-1zM14 12h1v1h-1zM18 12h1v1h-1zM20 12h2v1h-2zM23 12h1v1h-1zM26 12h4v1h-4zM2 13h1v1h-1zM4 13h4v1h-4zM9 13h1v1h-1zM11 13h4v1h-4zM16 13h2v1h-2zM20 13h1v1h-1zM25 13h1v1h-1zM28 13h2v1h-2zM3 14h6v1h-6zM11 14h1v1h-1zM13 14h2v1h-2zM18 14h2v1h-2zM24 14h2v1h-2zM27 14h1v1h-1zM29 14h2v1h-2zM2 15h2v1h-2zM6 15h1v1h-1zM9 15h1v1h-1zM13 15h1v1h-1zM17 15h1v1h-1zM19 15h1v1h-1zM21 15h3v1h-3zM6 16h1v1h-1zM8 16h1v1h-1zM10 16h2v1h-2zM17 16h2v1h-2zM20 16h1v1h-1zM22 16h2v1h-2zM26 16h5v1h-5zM2 17h1v1h-1zM4 17h3v1h-3zM9 17h8v1h-8zM18 17h2v1h-2zM22 17h3v1h-3zM27 17h1v1h-1zM29 17h1v1h-1zM4 18h5v1h-5zM10 18h3v1h-3zM14 18h6v1h-6zM21 18h3v1h-3zM25 18h1v1h-1zM29 18h1v1h-1zM3 19h1v1h-1zM5 19h1v1h-1zM10 19h3v1h-3zM17 19h1v1h-1zM19 19h1v1h-1zM23 19h3v1h-3zM27 19h1v1h-1zM30 19h1v1h-1zM2 20h1v1h-1zM6 20h1v1h-1zM8 20h1v1h-1zM11 20h5v1h-5zM20 20h1v1h-1zM22 20h1v1h-1zM24 20h2v1h-2zM29 20h2v1h-2zM4 21h2v1h-2zM7 21h1v1h-1zM10 21h1v1h-1zM12 21h4v1h-4zM17 21h5v1h-5zM23 21h1v1h-1zM26 21h1v1h-1zM29 21h2v1h-2zM2 22h1v1h-1zM5 22h1v1h-1zM7 22h2v1h-2zM11 22h3v1h-3zM16 22h1v1h-1zM18 22h1v1h-1zM22 22h5v1h-5zM28 22h1v1h-1zM10 23h1v1h-1zM15 23h1v1h-1zM17 23h2v1h-2zM22 23h1v1h-1zM26 23h1v1h-1zM28 23h3v1h-3zM2 24h7v1h-7zM15 24h3v1h-3zM19 24h2v1h-2zM22 24h1v1h-1zM24 24h1v1h-1zM26 24h1v1h-1zM29 24h1v1h-1zM2 25h1v1h-1zM8 25h1v1h-1zM10 25h2v1h-2zM14 25h2v1h-2zM18 25h1v1h-1zM20 25h1v1h-1zM22 25h1v1h-1zM26 25h4v1h-4zM2 26h1v1h-1zM4 26h3v1h-3zM8 26h1v1h-1zM12 26h1v1h-1zM16 26h2v1h-2zM20 26h1v1h-1zM22 26h5v1h-5zM29 26h1v1h-1zM2 27h1v1h-1zM4 27h3v1h-3zM8 27h1v1h-1zM10 27h1v1h-1zM15 27h4v1h-4zM21 27h2v1h-2zM24 27h5v1h-5zM30 27h1v1h-1zM2 28h1v1h-1zM4 28h3v1h-3zM8 28h1v1h-1zM11 28h1v1h-1zM13 28h2v1h-2zM16 28h1v1h-1zM21 28h2v1h-2zM26 28h3v1h-3zM30 28h1v1h-1zM2 29h1v1h-1zM8 29h1v1h-1zM11 29h1v1h-1zM13 29h1v1h-1zM17 29h1v1h-1zM21 29h2v1h-2zM29 29h1v1h-1zM2 30h7v1h-7zM10 30h1v1h-1zM12 30h3v1h-3zM16 30h1v1h-1zM21 30h3v1h-3zM29 30h1v1h-1z"/></svg>